<?xml version="1.0" encoding="iso-8859-1"?>
<!-- Uploaded to: SVG Repo, www.svgrepo.com, Generator: SVG Repo Mixer Tools -->
<svg height="800px" width="800px" version="1.1" id="Layer_1" xmlns="http://www.w3.org/2000/svg" xmlns:xlink="http://www.w3.org/1999/xlink" 
	 viewBox="0 0 496.2 496.2" xml:space="preserve">
<path style="fill:#FFEFD6;" d="M0,248.1C0,111.1,111.1,0,248.1,0s248.1,111.1,248.1,248.1S385.1,496.2,248.1,496.2S0,385.1,0,248.1z
	"/>
<polygon style="fill:#302F2F;" points="220.4,311.5 221.6,321.8 248.1,328.4 274.6,321.8 275.8,311.5 "/>
<path style="fill:#F4B382;" d="M232.7,318.3c13.8,7.7,29.3,16.2,33.3,16.9c16.8,3,29.1,11.3,27.8,14.7c0,0-39.6-5.7-68.7-11.6
	C213.8,336.1,222,312.3,232.7,318.3z"/>
<path style="fill:#3D3C3C;" d="M232.7,318.3c-10.7-6-20.2-11.4-22.5-12.2c-8.4-3.2-28.2-10.6-32.6,4.1
	c-4.4,14.6,10.6,17.5,21.3,21.6c5.2,2,14.9,4.3,26.1,6.6C226.7,331.3,229.2,324.5,232.7,318.3z"/>
<path style="fill:#F4B382;" d="M263.5,318.3c-13.8,7.7-29.3,16.2-33.3,16.9c-16.8,3-29.1,11.3-27.8,14.7c0,0,39.6-5.7,68.7-11.6
	C282.4,336.1,274.2,312.3,263.5,318.3z"/>
<path style="fill:#3D3C3C;" d="M263.5,318.3c10.7-6,20.2-11.4,22.5-12.2c8.4-3.2,28.2-10.6,32.6,4.1c4.4,14.6-10.6,17.5-21.3,21.6
	c-5.2,2-14.9,4.3-26.1,6.6C269.5,331.3,267,324.5,263.5,318.3z"/>
<path style="fill:#B3233B;" d="M274.6,244.2c1.9-11.5-7.5-32.4-7.5-32.4c-4.5-0.6-9.2-0.8-12.7-0.8h-12.6c-3.6,0-8.2,0.2-12.7,0.8
	c0,0-9.4,21-7.5,32.4c1.8,10.7,4.8,26.4-1.2,67.3h27.7l0,0h27.7C269.8,270.6,272.8,254.9,274.6,244.2z"/>
<g>
	<path style="fill:#F4B382;" d="M184.9,302.3l-23.4-14.2l3-1.8l19.7,7.3l16.8-23.4c3.5-9.2,3-50,12.1-54.7
		c6.5-3.4,16.2-3.8,16.2-3.8s-4.3,22.8-6.9,22.9s-2.1,7.2-4.4,16.7c-1,9-1.8,16-3.8,21.8L184.9,302.3z"/>
	<polygon style="fill:#F4B382;" points="187.9,294.5 180.1,293.7 183,286.8 178.4,284.4 179.9,282.5 186.8,284.2 	"/>
	<polygon style="fill:#F4B382;" points="171.6,292.3 175.9,292.8 177.7,287.1 181.5,285.7 181,283.6 175.7,283.8 	"/>
	<path style="fill:#F4B382;" d="M311.4,302.3l23.4-14.2l-3-1.8l-19.7,7.3l-16.8-23.4c-3.5-9.2-3-50-12.1-54.7
		c-6.5-3.4-16.2-3.8-16.2-3.8s4.3,22.8,6.9,22.9s2.1,7.2,4.4,16.7c1,9,1.8,16,3.8,21.8L311.4,302.3z"/>
	<polygon style="fill:#F4B382;" points="308.3,294.5 316.1,293.7 313.3,286.8 317.8,284.4 316.3,282.5 309.4,284.2 	"/>
	<polygon style="fill:#F4B382;" points="324.7,292.3 320.3,292.8 318.6,287.1 314.7,285.7 315.3,283.6 320.5,283.8 	"/>
</g>
<path style="fill:#E2A379;" d="M256.5,199.5h-16.9c2.6,8,0.2,11.6,0.2,11.6s0.5,5.2,8.3,5.2c7.7,0,8.2-5.2,8.2-5.2
	S253.9,207.4,256.5,199.5z"/>
<path style="fill:#F4B382;" d="M265.4,176.2c0-20.1-7.8-24.7-17.3-24.7c-9.6,0-17.3,4.6-17.3,24.7c0,6.8,1.2,12.1,3,16.2
	c4,9,10.9,12.2,14.3,12.2s10.3-3.2,14.3-12.2C264.2,188.3,265.4,183,265.4,176.2z"/>
<path style="fill:#D6876B;" d="M253,196.4c0,0-2.2,1.1-4.9,1.1c-2.7,0-4.9-1.1-4.9-1.1c0-0.3,1.6-2.1,2.6-2.2
	c0.6-0.1,2.3,0.5,2.3,0.5s1.6-0.6,2.3-0.5C251.4,194.3,253,196.4,253,196.4z"/>
<path style="fill:#CC785E;" d="M253,196.4c0,0-2.2,2-4.9,2c-2.7,0-4.9-2-4.9-2s0.5-0.6,3.4-0.8c0.5,0,1.1,0.4,1.5,0.4
	s0.9-0.4,1.3-0.4C252.4,195.8,253,196.4,253,196.4z"/>
<ellipse style="fill:#4C230C;" cx="248.1" cy="152.5" rx="9.1" ry="6.2"/>
<path style="fill:#602F0F;" d="M266.1,177.1c0-20.1-5.5-25.5-18-25.5s-18,5.5-18,25.5c0,0,26.7-5.8,26.7-13.1
	C256.8,171.3,266.1,177.1,266.1,177.1z"/>
<g>
	<path style="fill:#F4B382;" d="M229.1,183.3c0.9,5.5,2.1,5.7,3.8,5.4l-1.8-11.9C229.4,177.1,228.1,177.8,229.1,183.3z"/>
	<path style="fill:#F4B382;" d="M265.1,176.8l-1.8,11.9c1.7,0.3,2.8,0,3.8-5.4C268.1,177.8,266.8,177.1,265.1,176.8z"/>
</g>
<g>
	<path style="fill:#602F0F;" d="M232.1,177.9c-0.1-0.6-0.1-1.1-0.1-1.6c0-0.6,0.1-1,0.1-1l-2,0.8c0,0.3,0,0.6,0,0.9
		c0,0,0.2-0.1,0.6-0.2c0,0,0,0-0.1,0c0.3,0.5,0.6,1.2,1,2.3C231.6,179.2,232.4,179.8,232.1,177.9z"/>
	<path style="fill:#602F0F;" d="M264.1,176.4c0,0.4,0,1-0.1,1.5c-0.3,1.8,0.5,1.2,0.5,1.2c0.3-1.1,0.7-1.8,1-2.3
		c0.4,0.1,0.6,0.2,0.6,0.2c0-0.3,0-0.6,0-0.9l-2-0.8C264,175.4,264.1,175.8,264.1,176.4"/>
</g>
</svg>