<?xml version="1.0" encoding="iso-8859-1"?>
<!-- Uploaded to: SVG Repo, www.svgrepo.com, Generator: SVG Repo Mixer Tools -->
<svg height="800px" width="800px" version="1.1" id="Layer_1" xmlns="http://www.w3.org/2000/svg" xmlns:xlink="http://www.w3.org/1999/xlink" 
	 viewBox="0 0 496.2 496.2" xml:space="preserve">
<path style="fill:#FFEFD6;" d="M0,248.1C0,111.1,111.1,0,248.1,0s248.1,111.1,248.1,248.1S385.1,496.2,248.1,496.2S0,385.1,0,248.1z
	"/>
<path style="fill:#E2A379;" d="M430.5,180.3c-0.8-3.7-25.7,5.4-25.7,5.4c-34.4,5.2-50,11.5-50,11.5c-20.7,2.2-58.1,11.3-65.4,14.3
	s-3,18.4,4.9,17.3c7.9-1.1,14.7-3,22.4-4.7c7.7-1.7,34.1-12.1,40.7-14.3c0.9-0.3,49.1-15.8,49.1-15.8s2-0.4,5.5,0
	C416.8,194.7,431.3,184,430.5,180.3z"/>
<g>
	<path style="fill:#3D3C3C;" d="M217.1,236.4c-2.1-1.1-8.1-8-18.1-10.5c-6-1.5-13.6-2.1-20.5-2.3c-9.8-0.3-10.2,39.1-3.6,42
		c10.7,4.7,32.3,6,38.9,6.1c4.5,0,10.7-20.4,10.7-20.4S219.2,237.5,217.1,236.4z"/>
	<path style="fill:#3D3C3C;" d="M130,200.4c0,0-22.1-6.5-24.1,4.2c-2.1,11.1,45,45.8,55.2,53c10.3,7.1,14.6,9.5,38.5,16.7
		c3.5-5.5,1.8-7.4,1.3-25.5C200.4,226.3,130,200.4,130,200.4z"/>
</g>
<path style="fill:#E2A379;" d="M190.3,94c3,2.8-6.9,17.2-7.2,20.4c-0.2,1.6,1.1,3.9-0.5,7c-2.1,4.1-6.5,4.6-7.2,6
	c-3.4,7.6-12.1,23.3-16.4,32.5c-1,2.1-2.1,4.3-3.2,6.4c-4.7,8.8-19.6-6.2-17.6-9.2c8-12,27.8-34.5,31.1-38.5c0,0,8.1-13.8,10.3-16.8
	C181,99.8,187.3,91.2,190.3,94z"/>
<path style="fill:#3D3C3C;" d="M137.5,196.7c4-4.5,13.7-21.7,18.4-30.5c-3.4-0.5-15.4-7-17.6-9.2c-2,3-34.4,38.5-32.5,49.2
	c1.3,7.8,12.4,4.5,21.5-0.3C127.2,205.9,133.5,201.2,137.5,196.7z"/>
<path style="fill:#F4B382;" d="M211.5,422.6c-4-0.9-19.1,0-20.6-0.1c-3.6-0.1-7.1-2.1-6.4-5.5c0.5-2.6,1.8-4.9,1.6-6.5
	c-0.8-8.3-3.2-33.2-4-43.2c-0.2-2.3-0.3-4.7-0.4-7.2c-0.3-9.9,20.1-4.3,19.8-0.7c-1,14.4-4.7,48.4-5.7,53.6c0,0,24.7,1.2,24.3,4.9
	C219.9,420.2,215.5,423.6,211.5,422.6z"/>
<path style="fill:#3D3C3C;" d="M184.5,327.7c-1.4,11.5-3.1,22.4-2.8,32.4c3.3-1.2,16.8-1.6,19.8-0.7c0.2-3.6,4.8-31.3,4.8-31.3
	c1.1-8.8,10-60.4,7.7-76.5c-0.4-4.1-1.2-7.8-2-10.8c-1.6-5.9-34.1-2.5-35.4,5.6c1.1,17.6,3.8,44.6,5.3,57.6
	C183,313,184.5,327.7,184.5,327.7z"/>
<path style="fill:#B3233B;" d="M293.5,236.2c4.2-11.1,0.9-18.8-2.3-33.9c-0.6-1.7-7-7.1-10.9-7.7c-4.4-0.7-9.1-0.2-12.2,3.1
	c-2.9,2.4-7.3,8.2-17.2,29c-2.8,5.8-23.4,12.2-33.8,9.6c0,0-7.6,8.3-7.6,19.5c0,8.3,4.3,15.8,4.3,15.8c44.1-0.7,60.4-8.8,71-27.5
	C284.8,244.2,291.5,241.6,293.5,236.2z"/>
<path style="fill:#E2A379;" d="M293.2,203c0,0,2.2-8.6,6.9-15.2l-11-7.8c-1.9,8.2-11.7,14.5-11.7,14.5c7.4,19.3,14.4,15.1,15.1,14.4
	L293.2,203z"/>
<path style="fill:#F4B382;" d="M310.9,169.5c3.5-5.3,0.9-10.3-1.1-13.2c-6-8.8-12-9.3-19.7-8.9c-10.1,0.6-12.4,27.6-11.2,32
	c3,11.6,19.5,15.2,26.1,15c7.3-0.2,5.3-2.6,4.9-5.5c0-0.1,0.3-0.6,0.3-0.6c0-1-0.2-2.4,0.4-3.7c0,0-0.3-0.9-0.4-1.4
	c0-0.3,0-0.5,0.3-0.7c1-0.4,2-0.8,2.4-1.3C314.3,179.8,309.3,172,310.9,169.5z"/>
<path style="fill:#D6876B;" d="M306.4,186.2c0,0,0.7,0.4,4,0.2c0.4-0.2,1.1-0.7,0.4-1.6C310.4,184.1,308.8,185.7,306.4,186.2z"/>
<path style="fill:#CC785E;" d="M306.4,186.2c0,0,0.8,1.6,3.9,2.2c0.4-0.1,0.7-0.5,0.8-0.6c0.3-1-0.6-1.4-0.6-1.4
	C307.2,186.5,306.4,186.2,306.4,186.2z"/>
<path style="fill:#602F0F;" d="M289.4,145.8c-12.4,0.8-27.8,19.6-9.6,39.6c1.2,1.3,3.9,2.8,7.6-0.3c2.6-2.2,4.3-5,4.3-5
	c0.5-0.8,1-1.8,1.6-2.8c0.6-1.1-0.6-7.2,0.7-7.4c12-2.6,16.8-9.4,16.6-12.6C308.5,149.6,302.6,145,289.4,145.8z"/>
<path style="fill:#F4B382;" d="M289.3,176.7c2.2,5.4,4.5,5.5,7.7,5l-2.4-8.4l-1.9-3.3C289.6,170.4,287.1,171.3,289.3,176.7z"/>
<path style="fill:#4C230C;" d="M271.2,165.8c-3-2.3-2.1-8.3,2.2-13.5c4.2-5.2,10.1-7.5,13.2-5.2c3,2.3,1.6,6.9-2.6,12.1
	C279.7,164.3,274.2,168.1,271.2,165.8z"/>
<g>
	<path style="fill:#602F0F;" d="M295.2,171.1c-0.2-1-0.3-1.9-0.3-2.6c0-1.1,0.1-1.7,0.1-1.7l-3.5,1.5c0,0.5,0.1,1.1,0.1,1.6
		c0,0,0.4-0.1,1-0.4h-0.1c0.5,0.8,1.2,2,1.9,3.8C294.4,173.3,295.9,174.2,295.2,171.1z"/>
	<path style="fill:#602F0F;" d="M269.1,165.6c-3.2-2.4-2-9,2.6-14.6c4.6-5.7,11-8.3,14.2-5.9c3.2,2.4,1.6,7.4-3.1,13.1
		C278.2,163.8,272.3,168,269.1,165.6z"/>
</g>
<path style="fill:#4C230C;" d="M270.5,154.5c-0.4-0.3,0.5-1.9,1.9-3.6c1.4-1.7,2.9-2.9,3.2-2.6c0.4,0.3-0.4,1.6-1.9,3.3
	C272.3,153.2,270.8,154.8,270.5,154.5z"/>
<g>
	<path style="fill:#F4B382;" d="M153.5,116c-2.5,2.8,10.4,12.1,13.2,16.1l5.9,1.9c23.9,25.2,37.5,34.5,37.5,34.5
		c13.6,15.7,41.6,40.3,48.3,44.6c4,2.7,17-13.8,12.8-17.8c-7.1-5.5-10.2-6.1-16.6-11.1c-5.8-5.3-30-21-35.6-25.1
		c-0.8-0.6-40.5-31.4-40.5-31.4s-1.4-1.4-3.1-4.5c-2.3-4.3-7.6-8.7-11.5-10C160.5,112.2,156,113.3,153.5,116z"/>
	<path style="fill:#F4B382;" d="M164.2,127.6c0,0-3.4-3.7-5.5-2.1c-1.8,1.3-2.3,2,8,6.6C166.7,132.1,167.6,130.9,164.2,127.6z"/>
</g>
</svg>