<?xml version="1.0" encoding="iso-8859-1"?>
<!-- Uploaded to: SVG Repo, www.svgrepo.com, Generator: SVG Repo Mixer Tools -->
<svg height="800px" width="800px" version="1.1" id="Layer_1" xmlns="http://www.w3.org/2000/svg" xmlns:xlink="http://www.w3.org/1999/xlink" 
	 viewBox="0 0 496.2 496.2" xml:space="preserve">
<path style="fill:#FFEFD6;" d="M0,248.1C0,111.1,111.1,0,248.1,0s248.1,111.1,248.1,248.1S385.1,496.2,248.1,496.2S0,385.1,0,248.1z
	"/>
<path style="fill:#3D3C3C;" d="M200.2,253.8c-13.3,4-21.6,10.9-25.7,18.4c-2.5,4.6-3.4,14.4-2.8,18.9c1.6,12.7,10.5,17.6,10.5,17.6
	s33.6-1,32.2-8.1c-1.2-5.8-2.2-11.1-3-15.8C210.3,279.3,200.2,253.8,200.2,253.8z"/>
<path style="fill:#E2A379;" d="M248.5,383.3c-5.2,0-17.6-0.3-19.1-0.6c-3.6-0.7-6.8-3.1-5.5-6.4c0.9-2.5,2.4-4.6,2.6-6.2
	c1.7-19.3,3.1-33.3,5.3-41.3c2.6-9.6,23.9-3.9,22.3-0.7c-7.3,15.4-16.7,40.9-18.4,45.9c0,0,21.7,1.9,20.7,5.6
	C255.9,381.8,252.6,383.3,248.5,383.3z"/>
<path style="fill:#333333;" d="M250.1,301.7c-0.2,0-9.1,3.2-9.3,3.2c-2.9,7.4-5.5,11.6-9,24c3.4-0.7,19.5-2,22.3-0.7
	c1.2-3,4.8-15.3,7.5-24.4C259.8,304.5,254.8,303,250.1,301.7z"/>
<path style="fill:#F4B382;" d="M258.7,389c-5.1,0.4-17.6,0.5-19,0.3c-3.6-0.5-6.9-2.8-5.8-6.1c0.8-2.5,2.2-4.7,2.3-6.3
	c0.7-19.3,1.5-33.4,3.3-41.5c2.2-9.7,23.7-5.1,22.3-1.7c-6.6,15.8-14.7,41.7-16.2,46.7c0,0,21.7,0.9,20.9,4.6
	C266,387.1,262.8,388.7,258.7,389z"/>
<path style="fill:#3D3C3C;" d="M247.5,310.3c-2.7,7.9-5.1,12.2-8.1,25.1c3.4-0.9,19.4-2.9,22.3-1.7c1.7-4.9,8.8-35,8.8-35
	c-5.4-20-59.9-14.8-59.9-14.8c-1.5-3.9-41.4,16.3-28.4,24.9C195.1,317.3,247.5,310.3,247.5,310.3z"/>
<path style="fill:#E2A379;" d="M339.2,179.9c-0.2-1.9-14.9-3.8-22.9-0.9c-3.2,1.2-8.5,1.4-8.5,1.4c-29.2,2.5-46,0.5-46,0.5
	c-20.8-1.1-61.1-9.7-68.8-7.9s-5.8,17.7,2.2,17.8c8.5,1.9,14.7,2.6,25.3,2.4c20.6,1.3,35,0.5,42,0.4c11.3-0.1,46.3-5.1,46.3-5.1
	s4,1.1,6.5,0.7c4.5-0.6,8.1-1.7,11.8-3.7C332.6,183,339.3,181.8,339.2,179.9z"/>
<path style="fill:#3D3C3C;" d="M177,268.3c0,0,27.3,47.1,28.9,40c2.1-9.5,4.2-17.3,5.8-23.5l1.3-6.9c0,0-6.2-9.1-16.4-11
	C186.6,265.2,177,268.3,177,268.3z"/>
<path style="fill:#B3233B;" d="M226,208.4c1.4-12.2-8.4-19.3-14.1-32.8c-0.7-1.7-7.9-6.7-11.9-7.1c-4.4-0.4-9-0.1-12.6,3.3
	c-2.8,2.6-8.6,10.8-6.1,34.1c0.4,10.8,2.5,51-4.3,62.5c0,0,13.8-0.2,21.6,2.4s14.4,7.3,14.4,7.3c5.7-37,5.2-48.9,7.9-60.9
	C220.9,217.1,225.6,211.9,226,208.4z"/>
<path style="fill:#E2A379;" d="M203.3,169.5c0,0-0.2-4.3,0.2-11.7l-16-4.6c3.4,7.6,1.9,17.1,1.9,17.1
	C196.4,167.7,203.3,169.5,203.3,169.5z"/>
<path style="fill:#F4B382;" d="M211.1,137.1c3.3-5.4,0.4-10.3-1.6-13.1c-6.3-8.5-12.4-8.8-20-8c-10.1,1.1-11.2,28.1-9.8,32.5
	c3.5,11.4,20.1,14.3,26.7,13.8c7.3-0.5,5.2-2.9,4.7-5.7c0-0.1,0.3-0.6,0.3-0.6c-0.1-1-0.3-2.3,0.2-3.7c0,0-0.4-0.9-0.4-1.3
	c-0.1-0.3-0.1-0.5,0.3-0.7c1-0.5,2-0.9,2.3-1.4C214.9,147.3,209.5,139.7,211.1,137.1z"/>
<path style="fill:#D6876B;" d="M207.3,154c0,0,0.7,0.4,4,0c0.4-0.2,1-0.7,0.4-1.6C211.2,151.8,209.6,153.4,207.3,154z"/>
<path style="fill:#CC785E;" d="M207.3,154c0,0,0.8,1.6,4,2c0.4-0.1,0.7-0.5,0.8-0.7c0.3-1-0.7-1.3-0.7-1.3
	C208,154.3,207.3,154,207.3,154z"/>
<path style="fill:#602F0F;" d="M188.5,114.4c-12.3,1.3-26.9,20.7-7.9,39.9c1.3,1.3,4,2.7,7.5-0.6c2.5-2.3,4.1-5.2,4.1-5.2
	c0.5-0.9,0.9-1.8,1.5-2.8c0.6-1.1-0.9-7.1,0.4-7.4c11.9-3.2,16.4-10.1,16-13.3C207.8,117.3,201.7,113,188.5,114.4z"/>
<path style="fill:#F4B382;" d="M189.8,145.2c2.4,5.3,4.7,5.3,7.9,4.7l-2.7-8.3l-2-3.2C189.8,139,187.4,139.9,189.8,145.2z"/>
<path style="fill:#4C230C;" d="M171.2,135.1c-3.1-2.2-2.4-8.3,1.6-13.6s9.8-7.9,12.9-5.8s1.9,6.8-2.1,12.2
	C179.6,133.3,174.3,137.3,171.2,135.1z"/>
<g>
	<path style="fill:#602F0F;" d="M195.4,139.4c-0.3-1-0.4-1.9-0.4-2.6c-0.1-1,0-1.7,0-1.7l-3.4,1.7c0,0.5,0.1,1.1,0.2,1.6
		c0,0,0.4-0.2,1-0.5h-0.1c0.6,0.8,1.3,1.9,2.1,3.7C194.7,141.6,196.2,142.5,195.4,139.4z"/>
	<path style="fill:#602F0F;" d="M169.1,135c-3.3-2.3-2.4-8.9,2-14.7c4.4-5.9,10.6-8.8,13.9-6.5c3.3,2.3,1.9,7.4-2.5,13.2
		C178.2,132.9,172.4,137.3,169.1,135z"/>
</g>
<path style="fill:#4C230C;" d="M170,123.8c-0.4-0.3,0.4-1.9,1.8-3.7c1.3-1.8,2.7-3,3.1-2.8c0.4,0.3-0.4,1.6-1.7,3.4
	C171.8,122.5,170.4,124.1,170,123.8z"/>
<path style="fill:#F4B382;" d="M341.1,179.7c-0.2-1.9-15-3.6-22.9-0.5c-3.2,1.2-8.5,1.6-8.5,1.6c-29.1,3.1-46,1.4-46,1.4
	c-20.8-0.7-61.3-8.5-69-6.6c-7.7,2-5.5,17.8,2.5,17.8c8.6,1.7,14.7,2.3,25.3,2c20.6,1,35.1-0.2,42-0.4c11.3-0.3,46.2-6,46.2-6
	s4,1,6.6,0.6c4.5-0.7,8.1-1.9,11.7-4C334.6,182.9,341.3,181.6,341.1,179.7z"/>
</svg>